<svg version="1.1" viewBox="0.0 0.0 960.0 540.0" fill="none" stroke="none" stroke-linecap="square" stroke-miterlimit="10" xmlns:xlink="http://www.w3.org/1999/xlink" xmlns="http://www.w3.org/2000/svg"><clipPath id="g390fbb7e636_0_6.0"><path d="m0 0l960.0 0l0 540.0l-960.0 0l0 -540.0z" clip-rule="nonzero"/></clipPath><g clip-path="url(#g390fbb7e636_0_6.0)"><path fill="#ffffff" d="m0 0l960.0 0l0 540.0l-960.0 0z" fill-rule="evenodd"/><path fill="#000000" d="m9.4225723E-4 -9.4750656E-5l960.0 0l0 540.0l-960.0 0z" fill-rule="evenodd"/><path fill="#00ff00" d="m184.04462 369.10236l196.18109 -55.619415l-3.0341187 -304.38058l-181.0131 21.233597z" fill-rule="evenodd"/><path fill="#00ff00" d="m353.9344 217.13786l-4.047241 -187.61957l418.65356 -15.360866l15.167969 219.4377z" fill-rule="evenodd"/><path stroke="#6aa84f" stroke-width="2.0" stroke-linejoin="round" stroke-linecap="butt" d="m353.9344 217.13786l-4.047241 -187.61957l418.65356 -15.360866l15.167969 219.4377z" fill-rule="evenodd"/><path fill="#000000" d="m173.82677 6.1154857l612.34644 0l0 40.7874l-612.34644 0z" fill-rule="evenodd"/><path fill="#00ff00" d="m203.25722 358.9895l150.67455 -144.6063l408.54065 1.010498l17.19165 161.79788l-592.5853 4.0446167z" fill-rule="evenodd"/><path stroke="#6aa84f" stroke-width="2.0" stroke-linejoin="round" stroke-linecap="butt" d="m203.25722 358.9895l150.67455 -144.6063l408.54065 1.010498l17.19165 161.79788l-592.5853 4.0446167z" fill-rule="evenodd"/><path fill="#000000" d="m173.82677 361.3596l612.34644 0l0 69.00787l-612.34644 0z" fill-rule="evenodd"/><path fill="#000000" d="m759.874 11.874016l97.07086 0l0 372.37796l-97.07086 0z" fill-rule="evenodd"/><path fill="#000000" d="m104.6273 14.15748l97.07087 0l0 372.37796l-97.07087 0z" fill-rule="evenodd"/><path fill="#000000" fill-opacity="0.0" d="m200.12466 46.901794l559.74805 0l0 314.4567l-559.74805 0z" fill-rule="evenodd"/><path stroke="#ffffff" stroke-width="4.0" stroke-linejoin="round" stroke-linecap="butt" d="m200.12466 46.901794l559.74805 0l0 314.4567l-559.74805 0z" fill-rule="evenodd"/><path fill="#ffffff" d="m810.6142 94.83375l133.3858 0l0 426.70868l-133.3858 0z" fill-rule="evenodd"/><path stroke="#999999" stroke-width="4.0" stroke-linejoin="round" stroke-linecap="butt" d="m810.6142 94.83375l133.3858 0l0 426.70868l-133.3858 0z" fill-rule="evenodd"/><path fill="#000000" d="m810.6142 26.549694l133.3858 0l0 56.31496l-133.3858 0z" fill-rule="evenodd"/><path stroke="#ffffff" stroke-width="4.0" stroke-linejoin="round" stroke-linecap="butt" d="m810.6142 26.549694l133.3858 0l0 56.31496l-133.3858 0z" fill-rule="evenodd"/><path fill="#ffff00" d="m826.65845 62.67278l0 -2.65625l5.328125 0l0 -10.671875l-2.671875 0l0 -2.65625l2.671875 0l0 -2.671875l5.328125 0l0 16.0l5.328125 0l0 2.65625l-15.984375 0zm18.656311 0l0 -5.328125l2.671875 0l0 -2.671875l2.65625 0l0 -2.65625l5.34375 0l0 -2.671875l2.65625 0l0 -2.65625l-8.0 0l0 2.65625l-5.328125 0l0 -2.65625l2.671875 0l0 -2.671875l13.328125 0l0 2.671875l2.65625 0l0 5.328125l-2.65625 0l0 2.65625l-2.671875 0l0 2.671875l-5.328125 0l0 2.671875l10.65625 0l0 2.65625l-18.65625 0zm26.656372 -10.65625l0 -5.328125l5.34375 0l0 5.328125l-5.34375 0zm0 8.0l0 -5.34375l5.34375 0l0 5.34375l-5.34375 0zm26.671936 2.65625l0 -5.328125l-10.671875 0l0 -5.328125l2.671875 0l0 -2.671875l2.65625 0l0 -2.65625l2.671875 0l0 -2.671875l8.0 0l0 10.65625l2.65625 0l0 2.671875l-2.65625 0l0 5.328125l-5.328125 0zm-5.34375 -8.0l5.34375 0l0 -5.328125l-2.671875 0l0 2.671875l-2.671875 0l0 2.65625zm21.328247 8.0l0 -8.0l2.671875 0l0 -2.65625l2.671875 0l0 -2.671875l2.65625 0l0 -2.65625l-8.0 0l0 2.65625l-5.328125 0l0 -5.328125l18.65625 0l0 5.328125l-2.65625 0l0 2.671875l-2.671875 0l0 2.65625l-2.65625 0l0 8.0l-5.34375 0z" fill-rule="nonzero"/><path fill="#000000" d="m165.10252 389.5762l629.7953 0l0 131.96848l-629.7953 0z" fill-rule="evenodd"/><path stroke="#ffffff" stroke-width="4.0" stroke-linejoin="round" stroke-linecap="butt" d="m165.10252 389.5762l629.7953 0l0 131.96848l-629.7953 0z" fill-rule="evenodd"/><path fill="#ffffff" d="m183.10252 416.93622l0 -2.0l2.0 0l0 -2.0l-4.0 0l0 -2.0l4.0 0l0 -2.0l-2.0 0l0 -2.0l4.0 0l0 2.0l2.0 0l0 -2.0l4.0 0l0 2.0l-2.0 0l0 2.0l4.0 0l0 2.0l-4.0 0l0 2.0l2.0 0l0 2.0l-4.0 0l0 -2.0l-2.0 0l0 2.0l-4.0 0zm32.00006 2.0l0 -2.0l-2.0 0l0 -12.0l4.0 0l0 8.0l2.0 0l0 -8.0l2.0 0l0 8.0l2.0 0l0 -8.0l4.0 0l0 12.0l-2.0 0l0 2.0l-2.0 0l0 -2.0l-2.0 0l0 -2.0l-2.0 0l0 2.0l-2.0 0l0 2.0l-2.0 0zm16.00003 0l0 -2.0l-2.0 0l0 -6.0l2.0 0l0 -2.0l10.0 0l0 2.0l2.0 0l0 6.0l-2.0 0l0 2.0l-10.0 0zm2.0 -2.0l6.0 0l0 -6.0l-6.0 0l0 6.0zm16.00003 0l2.0 0l0 2.0l-4.0 0l0 -2.0l-2.0 0l0 -8.0l4.0 0l0 8.0zm4.0 -8.0l0 8.0l-2.0 0l0 -8.0l2.0 0zm6.0000153 0l0 8.0l-2.0 0l0 2.0l-4.0000153 0l0 -2.0l2.0 0l0 -8.0l4.0000153 0zm4.0000305 12.0l0 -2.0l2.0 0l0 -4.0l4.0 0l0 4.0l-2.0 0l0 2.0l-4.0 0zm36.00006 -2.0l0 -2.0l-2.0 0l0 -2.0l-2.0 0l0 -6.0l4.0 0l0 6.0l4.0 0l0 -6.0l4.0 0l0 6.0l-2.0 0l0 2.0l-2.0 0l0 2.0l-4.0 0zm12.0000305 0l0 -2.0l-2.0 0l0 -6.0l2.0 0l0 -2.0l10.0 0l0 2.0l2.0 0l0 4.0l-10.0 0l0 2.0l8.0 0l0 2.0l-10.0 0zm2.0 -6.0l6.0 0l0 -2.0l-6.0 0l0 2.0zm18.00003 -2.0l2.0 0l0 2.0l-2.0 0l0 6.0l-4.0 0l0 -10.0l4.0 0l0 2.0zm8.0 -2.0l0 2.0l-6.0 0l0 -2.0l6.0 0zm4.0000305 12.0l0 -2.0l8.0 0l0 -2.0l-8.0 0l0 -2.0l-2.0 0l0 -6.0l4.0 0l0 6.0l6.0 0l0 -6.0l4.0 0l0 10.0l-2.0 0l0 2.0l-10.0 0z" fill-rule="nonzero"/><path fill="#00ff00" d="m375.1029 420.93622l0 -2.0l8.0 0l0 -2.0l-8.0 0l0 -2.0l-2.0 0l0 -4.0l2.0 0l0 -2.0l12.0 0l0 10.0l-2.0 0l0 2.0l-10.0 0zm2.0 -6.0l6.0 0l0 -4.0l-6.0 0l0 4.0zm18.00003 -4.0l2.0 0l0 2.0l-2.0 0l0 6.0l-4.0 0l0 -10.0l4.0 0l0 2.0zm8.0 -2.0l0 2.0l-6.0 0l0 -2.0l6.0 0zm4.0000305 10.0l0 -2.0l-2.0 0l0 -6.0l2.0 0l0 -2.0l10.0 0l0 2.0l2.0 0l0 4.0l-10.0 0l0 2.0l8.0 0l0 2.0l-10.0 0zm2.0 -6.0l6.0 0l0 -2.0l-6.0 0l0 2.0zm14.0000305 6.0l0 -2.0l-2.0 0l0 -6.0l2.0 0l0 -2.0l10.0 0l0 2.0l2.0 0l0 4.0l-10.0 0l0 2.0l8.0 0l0 2.0l-10.0 0zm2.0 -6.0l6.0 0l0 -2.0l-6.0 0l0 2.0zm12.0000305 6.0l0 -10.0l12.0 0l0 2.0l2.0 0l0 8.0l-4.0 0l0 -8.0l-6.0 0l0 8.0l-4.0 0z" fill-rule="nonzero"/><path fill="#ffffff" d="m453.10306 418.93622l0 -4.0l2.0 0l0 4.0l-2.0 0zm6.0 0l0 -4.0l2.0 0l0 4.0l-2.0 0zm6.0 0l0 -4.0l2.0 0l0 4.0l-2.0 0z" fill-rule="nonzero"/><path fill="#000000" d="m16.0 26.549984l133.38583 0l0 494.99213l-133.38583 0z" fill-rule="evenodd"/><path stroke="#ffffff" stroke-width="4.0" stroke-linejoin="round" stroke-linecap="butt" d="m16.0 26.549984l133.38583 0l0 494.99213l-133.38583 0z" fill-rule="evenodd"/><path fill="#ffffff" d="m38.380413 54.141857l0 -2.34375l4.671875 0l0 -11.65625l-4.671875 0l0 -2.328125l14.0 0l0 2.328125l-4.671875 0l0 11.65625l4.671875 0l0 2.34375l-14.0 0zm23.328125 0l0 -9.328125l-4.671875 0l0 -2.34375l4.671875 0l0 -4.65625l4.656254 0l0 4.65625l4.671875 0l0 2.34375l-4.671875 0l0 9.328125l-4.656254 0zm13.984379 0l0 -2.34375l-2.328125 0l0 -6.984375l2.328125 0l0 -2.34375l11.671875 0l0 2.34375l2.328125 0l0 4.65625l-11.65625 0l0 2.328125l9.328125 0l0 2.34375l-11.671875 0zm2.34375 -7.0l6.984375 0l0 -2.328125l-6.984375 0l0 2.328125zm13.984375 7.0l0 -11.671875l14.0 0l0 2.34375l2.328125 0l0 9.328125l-4.671875 0l0 -9.328125l-2.328125 0l0 9.328125l-4.65625 0l0 -9.328125l-2.34375 0l0 9.328125l-2.328125 0zm18.65625 0l0 -2.34375l11.65625 0l0 -2.328125l-9.328125 0l0 -2.328125l-2.328125 0l0 -2.328125l2.328125 0l0 -2.34375l11.671875 0l0 2.34375l-9.328125 0l0 2.328125l9.328125 0l0 2.328125l2.328125 0l0 2.328125l-2.328125 0l0 2.34375l-14.0 0z" fill-rule="nonzero"/><path fill="#000000" fill-opacity="0.0" d="m810.6144 94.83342l133.3858 0l0 27.46457l-133.3858 0z" fill-rule="evenodd"/><path fill="#cccccc" d="m820.4425 109.4053l0 -0.828125l-0.828125 0l0 -5.0l1.65625 0l0 3.328125l0.84375 0l0 -3.328125l0.828125 0l0 3.328125l0.828125 0l0 -3.328125l1.671875 0l0 5.0l-0.84375 0l0 0.828125l-0.828125 0l0 -0.828125l-0.828125 0l0 -0.84375l-0.828125 0l0 0.84375l-0.84375 0l0 0.828125l-0.828125 0zm8.328064 -3.328125l0.828125 0l0 0.828125l-0.828125 0l0 2.5l-1.671875 0l0 -4.15625l1.671875 0l0 0.828125zm3.328125 -0.828125l0 0.828125l-2.5 0l0 -0.828125l2.5 0zm3.328003 -0.84375l0 -0.828125l1.65625 0l0 0.828125l-1.65625 0zm-1.671875 5.0l0 -0.828125l1.671875 0l0 -2.5l-0.84375 0l0 -0.828125l2.5 0l0 3.328125l1.671875 0l0 0.828125l-5.0 0zm8.328064 0l0 -3.328125l-1.671875 0l0 -0.828125l1.671875 0l0 -1.671875l1.65625 0l0 1.671875l1.671875 0l0 0.828125l-1.671875 0l0 3.328125l-1.65625 0zm4.984314 0l0 -0.828125l-0.828125 0l0 -2.5l0.828125 0l0 -0.828125l4.15625 0l0 0.828125l0.84375 0l0 1.65625l-4.171875 0l0 0.84375l3.328125 0l0 0.828125l-4.15625 0zm0.828125 -2.5l2.5 0l0 -0.828125l-2.5 0l0 0.828125zm11.656067 2.5l0 -4.15625l4.984375 0l0 0.828125l0.84375 0l0 3.328125l-1.671875 0l0 -3.328125l-2.5 0l0 3.328125l-1.65625 0zm7.484314 0l0 -0.828125l-0.828125 0l0 -2.5l0.828125 0l0 -0.828125l4.15625 0l0 0.828125l0.84375 0l0 2.5l-0.84375 0l0 0.828125l-4.15625 0zm0.828125 -0.828125l2.5 0l0 -2.5l-2.5 0l0 2.5zm7.499939 0.828125l0 -3.328125l-1.671875 0l0 -0.828125l1.671875 0l0 -1.671875l1.65625 0l0 1.671875l1.671875 0l0 0.828125l-1.671875 0l0 3.328125l-1.65625 0zm4.984314 0l0 -0.828125l-0.828125 0l0 -2.5l0.828125 0l0 -0.828125l4.15625 0l0 0.828125l0.84375 0l0 1.65625l-4.171875 0l0 0.84375l3.328125 0l0 0.828125l-4.15625 0zm0.828125 -2.5l2.5 0l0 -0.828125l-2.5 0l0 0.828125zm4.999878 2.5l0 -0.828125l4.15625 0l0 -0.84375l-3.328125 0l0 -0.828125l-0.828125 0l0 -0.828125l0.828125 0l0 -0.828125l4.15625 0l0 0.828125l-3.328125 0l0 0.828125l3.328125 0l0 0.828125l0.84375 0l0 0.84375l-0.84375 0l0 0.828125l-4.984375 0zm13.312378 0l0 -5.828125l1.65625 0l0 1.671875l3.328125 0l0 0.828125l0.84375 0l0 3.328125l-1.671875 0l0 -3.328125l-2.5 0l0 3.328125l-1.65625 0zm7.484314 0l0 -0.828125l-0.828125 0l0 -2.5l0.828125 0l0 -0.828125l4.15625 0l0 0.828125l0.84375 0l0 1.65625l-4.171875 0l0 0.84375l3.328125 0l0 0.828125l-4.15625 0zm0.828125 -2.5l2.5 0l0 -0.828125l-2.5 0l0 0.828125zm7.499878 -0.828125l0.828125 0l0 0.828125l-0.828125 0l0 2.5l-1.671875 0l0 -4.15625l1.671875 0l0 0.828125zm3.328125 -0.828125l0 0.828125l-2.5 0l0 -0.828125l2.5 0zm1.656189 4.15625l0 -0.828125l-0.828125 0l0 -2.5l0.828125 0l0 -0.828125l4.15625 0l0 0.828125l0.84375 0l0 1.65625l-4.171875 0l0 0.84375l3.328125 0l0 0.828125l-4.15625 0zm0.828125 -2.5l2.5 0l0 -0.828125l-2.5 0l0 0.828125zm4.999939 2.5l0 -1.671875l0.828125 0l0 1.671875l-0.828125 0zm2.5 0l0 -1.671875l0.828125 0l0 1.671875l-0.828125 0zm2.484375 0l0 -1.671875l0.84375 0l0 1.671875l-0.84375 0z" fill-rule="nonzero"/><path fill="#cc0000" d="m49.35729 91.19861l-15.4937935 20.085922l-12.626503 4.590645l4.5921326 16.068748l11.476608 -2.8687897l23.529652 -32.137474z" fill-rule="evenodd"/><path stroke="#660000" stroke-width="4.0" stroke-linejoin="round" stroke-linecap="butt" d="m49.35729 91.19861l-15.4937935 20.085922l-12.626503 4.590645l4.5921326 16.068748l11.476608 -2.8687897l23.529652 -32.137474z" fill-rule="evenodd"/><path fill="#ffffff" d="m39.621906 82.74271l0 0c0 -10.932732 8.862736 -19.795471 19.795471 -19.795471l0 0c5.2500877 0 10.285145 2.0855865 13.997517 5.7979584c3.7123718 3.7123718 5.7979584 8.747429 5.7979584 13.997513l0 0c0 10.932739 -8.86274 19.795479 -19.795475 19.795479l0 0c-10.932735 0 -19.795471 -8.86274 -19.795471 -19.795479z" fill-rule="evenodd"/><path stroke="#434343" stroke-width="4.0" stroke-linejoin="round" stroke-linecap="butt" d="m39.621906 82.74271l0 0c0 -10.932732 8.862736 -19.795471 19.795471 -19.795471l0 0c5.2500877 0 10.285145 2.0855865 13.997517 5.7979584c3.7123718 3.7123718 5.7979584 8.747429 5.7979584 13.997513l0 0c0 10.932739 -8.86274 19.795479 -19.795475 19.795479l0 0c-10.932735 0 -19.795471 -8.86274 -19.795471 -19.795479z" fill-rule="evenodd"/><path fill="#6aa84f" d="m310.91077 69.77428l-70.23622 67.35724l0 189.11519l70.23622 -67.35721z" fill-rule="evenodd"/><path stroke="#274e13" stroke-width="4.0" stroke-linejoin="round" stroke-linecap="butt" d="m310.91077 69.77428l-70.23622 67.35724l0 189.11519l70.23622 -67.35721z" fill-rule="evenodd"/><path fill="#00ff00" d="m552.1365 180.81184l154.65356 0l0 51.755905l-154.65356 0z" fill-rule="evenodd"/><path fill="#00cb00" d="m706.79004 180.81184l17.251953 -17.251968l0 51.755905l-17.251953 17.251968z" fill-rule="evenodd"/><path fill="#33ff33" d="m552.1365 180.81184l17.251953 -17.251968l154.65356 0l-17.251953 17.251968z" fill-rule="evenodd"/><path fill="#000000" fill-opacity="0.0" d="m552.1365 180.81184l17.251953 -17.251968l154.65356 0l0 51.755905l-17.251953 17.251968l-154.65356 0zm0 0l154.65356 0l17.251953 -17.251968m-17.251953 17.251968l0 51.755905" fill-rule="evenodd"/><path stroke="#595959" stroke-width="1.0" stroke-linejoin="round" stroke-linecap="butt" d="m552.1365 180.81184l17.251953 -17.251968l154.65356 0l0 51.755905l-17.251953 17.251968l-154.65356 0zm0 0l154.65356 0l17.251953 -17.251968m-17.251953 17.251968l0 51.755905" fill-rule="evenodd"/><path fill="#6aa84f" d="m632.021 136.5196l43.404297 0l0 40.947586l-43.404297 0z" fill-rule="evenodd"/><path fill="#54863f" d="m675.4253 136.5196l9.162659 -9.162651l0 40.94758l-9.162659 9.162659z" fill-rule="evenodd"/><path fill="#87b972" d="m632.021 136.5196l9.162659 -9.162651l43.404297 0l-9.162659 9.162651z" fill-rule="evenodd"/><path fill="#000000" fill-opacity="0.0" d="m632.021 136.5196l9.162659 -9.162651l43.404297 0l0 40.94758l-9.162659 9.162659l-43.404297 0zm0 0l43.404297 0l9.162659 -9.162651m-9.162659 9.162651l0 40.947586" fill-rule="evenodd"/><path stroke="#274e13" stroke-width="4.0" stroke-linejoin="round" stroke-linecap="butt" d="m632.021 136.5196l9.162659 -9.162651l43.404297 0l0 40.94758l-9.162659 9.162659l-43.404297 0zm0 0l43.404297 0l9.162659 -9.162651m-9.162659 9.162651l0 40.947586" fill-rule="evenodd"/></g></svg>