<?xml version="1.0" encoding="UTF-8"?>
<svg id="Layer_2" data-name="Layer 2" xmlns="http://www.w3.org/2000/svg" viewBox="0 0 94.2 90.18">
  <defs>
    <style>
      .cls-1 {
        fill: #fff0;
        stroke: #000;
        stroke-miterlimit: 10;
        stroke-width: 4px;
      }
    </style>
  </defs>
  <g id="Layer_1-2" data-name="Layer 1">
    <path class="cls-1" d="M38.77,83l-15.78,4.99c-2.62.83-5.3-1.12-5.32-3.87l-.13-16.55c-.05-5.69-1.84-11.22-5.15-15.85l-9.62-13.46c-1.6-2.24-.58-5.39,2.03-6.26l15.7-5.24c5.39-1.8,10.1-5.22,13.48-9.8l9.83-13.31c1.63-2.21,4.94-2.21,6.58,0l9.83,13.31c3.38,4.57,8.09,8,13.48,9.8l15.7,5.24c2.61.87,3.63,4.02,2.03,6.26l-9.62,13.46c-3.31,4.63-5.1,10.16-5.15,15.85l-.13,16.55c-.02,2.75-2.7,4.7-5.32,3.87l-15.78-4.99c-5.42-1.71-11.24-1.71-16.67,0Z"/>
  </g>
</svg>