<?xml version="1.0" encoding="UTF-8"?>
<svg id="Layer_2" data-name="Layer 2" xmlns="http://www.w3.org/2000/svg" viewBox="0 0 212.24 191.43">
  <defs>
    <style>
      .cls-1 {
        fill: #fff;
      }
    </style>
  </defs>
  <g id="Layer_2-2" data-name="Layer 2">
    <polygon class="cls-1" points="106.12 0 110.08 4.86 114.45 .3 117.97 5.42 122.72 1.18 125.79 6.53 130.89 2.64 133.48 8.2 138.91 4.68 141.01 10.41 146.73 7.29 148.33 13.14 154.3 10.43 155.38 16.38 161.57 14.1 162.13 20.11 168.5 18.28 168.53 24.31 175.04 22.93 174.55 28.94 181.16 28.03 180.15 33.99 186.81 33.55 185.29 39.42 191.97 39.46 189.94 45.2 196.6 45.7 194.08 51.29 200.67 52.26 197.67 57.65 204.16 59.09 200.7 64.24 207.05 66.14 203.15 71.03 209.31 73.37 205 77.98 210.93 80.74 206.23 85.03 211.91 88.21 206.86 92.15 212.24 95.72 206.86 99.29 211.91 103.23 206.23 106.4 210.93 110.69 205 113.46 209.31 118.06 203.15 120.4 207.05 125.29 200.7 127.19 204.16 132.35 197.67 133.79 200.67 139.17 194.08 140.15 196.6 145.73 189.94 146.24 191.97 151.98 185.29 152.01 186.81 157.88 180.15 157.44 181.16 163.4 174.55 162.49 175.04 168.5 168.53 167.13 168.5 173.15 162.13 171.32 161.57 177.33 155.38 175.05 154.3 181 148.33 178.29 146.73 184.15 141.01 181.03 138.91 186.75 133.48 183.23 130.89 188.79 125.79 184.9 122.72 190.25 117.97 186.02 114.45 191.14 110.08 186.58 106.12 191.43 102.16 186.58 97.79 191.14 94.27 186.02 89.52 190.25 86.45 184.9 81.35 188.79 78.75 183.23 73.33 186.75 71.23 181.03 65.51 184.15 63.91 178.29 57.94 181 56.86 175.05 50.67 177.33 50.11 171.32 43.74 173.15 43.71 167.13 37.2 168.5 37.69 162.49 31.08 163.4 32.09 157.44 25.43 157.88 26.95 152.01 20.27 151.98 22.3 146.24 15.64 145.73 18.16 140.15 11.57 139.17 14.57 133.79 8.08 132.35 11.54 127.19 5.19 125.29 9.09 120.4 2.93 118.06 7.24 113.46 1.31 110.69 6 106.4 .33 103.23 5.38 99.29 0 95.72 5.38 92.15 .33 88.21 6 85.03 1.31 80.74 7.24 77.98 2.93 73.37 9.09 71.03 5.19 66.14 11.54 64.24 8.08 59.09 14.57 57.65 11.57 52.26 18.16 51.29 15.64 45.7 22.3 45.2 20.27 39.46 26.95 39.42 25.43 33.55 32.09 33.99 31.08 28.03 37.69 28.94 37.2 22.93 43.71 24.31 43.74 18.28 50.11 20.11 50.67 14.1 56.86 16.38 57.94 10.43 63.91 13.14 65.51 7.29 71.23 10.41 73.33 4.68 78.75 8.2 81.35 2.64 86.45 6.53 89.52 1.18 94.27 5.42 97.79 .3 102.16 4.86 106.12 0"/>
  </g>
</svg>